<?xml version="1.0" encoding="UTF-8" standalone="no"?>
<svg
   xmlns:dc="http://purl.org/dc/elements/1.1/"
   xmlns:cc="http://creativecommons.org/ns#"
   xmlns:rdf="http://www.w3.org/1999/02/22-rdf-syntax-ns#"
   xmlns:svg="http://www.w3.org/2000/svg"
   xmlns="http://www.w3.org/2000/svg"
   xmlns:sodipodi="http://sodipodi.sourceforge.net/DTD/sodipodi-0.dtd"
   xmlns:inkscape="http://www.inkscape.org/namespaces/inkscape"
   inkscape:version="1.0beta1 (32d4812, 2019-09-19)"
   sodipodi:docname="kreis.svg"
   xml:space="preserve"
   enable-background="new 0 0 215 215"
   viewBox="0 0 215 215"
   y="0px"
   x="0px"
   id="clockie"
   version="1.1"><metadata
   id="metadata883">
  <rdf:RDF>
    <cc:Work
       rdf:about="">
      <dc:format>image/svg+xml</dc:format>
      <dc:type
         rdf:resource="http://purl.org/dc/dcmitype/StillImage" />
    </cc:Work>
  </rdf:RDF>
</metadata>
<defs
   id="defs881" />
<sodipodi:namedview
   inkscape:current-layer="clockie"
   inkscape:window-maximized="0"
   inkscape:window-y="23"
   inkscape:window-x="0"
   inkscape:cy="134.19355"
   inkscape:cx="116.93548"
   inkscape:zoom="1.24"
   showgrid="false"
   id="namedview879"
   inkscape:window-height="1209"
   inkscape:window-width="1600"
   inkscape:pageshadow="2"
   inkscape:pageopacity="0"
   guidetolerance="10"
   gridtolerance="10"
   objecttolerance="10"
   borderopacity="1"
   inkscape:document-rotation="0"
   bordercolor="#666666"
   pagecolor="#ffffff" />

   <path
   d="M 208,108 A 100,100 0 0 0 108,8 100,100 0 0 0 8,108 100,100 0 0 0 108,208 100,100 0 0 0 208,108"
   style="stroke-linecap:round"
   id="annualring" />


   <g id="raster">
     <g transform="translate(0, 0) rotate(0)">
       <line x1="107.5" y1="0" x2="107.5" y2="215" style="stroke:rgb(255,0,0);stroke-width:1" />
     </g>
     <g transform="translate(68, -39) rotate(30)">
       <line x1="107.5" y1="0" x2="107.5" y2="215" style="stroke:rgb(255,0,0);stroke-width:1" />
     </g>
     <g transform="translate(147, -39) rotate(60)">
       <line x1="107.5" y1="0" x2="107.5" y2="215" style="stroke:rgb(255,0,0);stroke-width:1" />
     </g>
     <g transform="translate(215, 0) rotate(90)">
       <line x1="107.5" y1="0" x2="107.5" y2="215" style="stroke:rgb(255,0,0);stroke-width:1" />
     </g>
     <g transform="translate(254, 68) rotate(120)">
       <line x1="107.5" y1="0" x2="107.5" y2="215" style="stroke:rgb(255,0,0);stroke-width:1" />
     </g>
     <g transform="translate(254, 147) rotate(150)">
       <line x1="107.5" y1="0" x2="107.5" y2="215" style="stroke:rgb(255,0,0);stroke-width:1" />
     </g>

     <g transform="translate(32, -24) rotate(15)">
       <g transform="translate(0, 0) rotate(0)">
         <line x1="107.5" y1="0" x2="107.5" y2="215" style="stroke:rgb(255,0,0);stroke-width:1" />
       </g>
       <g transform="translate(68, -39) rotate(30)">
         <line x1="107.5" y1="0" x2="107.5" y2="215" style="stroke:rgb(255,0,0);stroke-width:1" />
       </g>
       <g transform="translate(147, -39) rotate(60)">
         <line x1="107.5" y1="0" x2="107.5" y2="215" style="stroke:rgb(255,0,0);stroke-width:1" />
       </g>
       <g transform="translate(215, 0) rotate(90)">
         <line x1="107.5" y1="0" x2="107.5" y2="215" style="stroke:rgb(255,0,0);stroke-width:1" />
       </g>
       <g transform="translate(254, 68) rotate(120)">
         <line x1="107.5" y1="0" x2="107.5" y2="215" style="stroke:rgb(255,0,0);stroke-width:1" />
       </g>
       <g transform="translate(254, 147) rotate(150)">
         <line x1="107.5" y1="0" x2="107.5" y2="215" style="stroke:rgb(255,0,0);stroke-width:1" />
       </g>

     </g>
   </g>
</svg>
